<?xml version="1.0" standalone="no"?><!DOCTYPE svg PUBLIC "-//W3C//DTD SVG 1.1//EN" "http://www.w3.org/Graphics/SVG/1.1/DTD/svg11.dtd"><svg t="1512097864758" class="icon" style="" viewBox="0 0 1024 1024" version="1.1" xmlns="http://www.w3.org/2000/svg" p-id="5441" xmlns:xlink="http://www.w3.org/1999/xlink" width="32" height="32"><defs><style type="text/css"></style></defs><path d="M945.957041 518.873548 510.712169 108.907409 75.428412 517.67014c-8.519024 7.986905-16.565281 23.957645-8.598842 32.537044 7.927553 8.55791 28.869514 6.505158 37.388539-1.499144l406.41629-381.667629 406.492014 382.831128c1.38044 1.281179 25.046443 13.487176 36.125779 1.537006C961.21863 542.832216 954.476065 526.878872 945.957041 518.873548z" p-id="5442" fill="#2c2c2c"></path><path d="M813.127803 552.533159c-11.636015 0-19.562545 9.503445-19.562545 21.23565l0 301.885562L630.763382 875.65437 630.763382 673.313989 389.083018 673.313989l0 202.340381L227.819171 875.65437l0-301.885562c0-11.732206-7.927553-21.23565-19.600407-21.23565-11.6749 0-21.099551 9.503445-21.099551 21.23565l0 341.322759 242.665809 0L429.785022 714.269773l161.817456 0 0 200.821795 242.6259 0L834.228377 573.768809C834.227354 562.037626 824.802704 552.533159 813.127803 552.533159z" p-id="5443" fill="#2c2c2c"></path><path d="M693.19427 230.478232l98.832959 0 0 99.366102c0 11.752672 9.464559 21.25714 21.100574 21.25714 11.673877 0 21.098527-9.504468 21.098527-21.25714L834.226331 189.284017l-141.03206 0c-11.633968 0-21.099551 8.222265-21.099551 19.955494C672.09472 220.97274 681.560302 230.478232 693.19427 230.478232z" p-id="5444" fill="#2c2c2c"></path></svg>